<svg height="40" width="40" version="1.1" id="Layer_1" xmlns="http://www.w3.org/2000/svg" xmlns:xlink="http://www.w3.org/1999/xlink" viewBox="0 0 504.903 504.903" xml:space="preserve">
    <g transform="translate(1 1)">
        <g>
            <polygon style="fill:#63D3FD;" points="334.968,298.25 298.275,334.09 262.435,334.09 262.435,298.25 298.275,262.41 
                334.968,262.41 		"/>
            <polygon style="fill:#63D3FD;" points="407.501,370.783 370.808,406.623 334.968,406.623 334.968,370.783 370.808,334.09 
                407.501,334.09 		"/>
        </g>
        <g>
            <polygon style="fill:#3DB9F9;" points="370.808,334.09 334.968,369.93 334.968,371.636 357.155,349.45 392.995,349.45 
                392.995,384.436 407.501,369.93 407.501,334.09 		"/>
            <polygon style="fill:#3DB9F9;" points="298.275,262.41 262.435,298.25 262.435,299.956 283.768,277.77 320.461,277.77 
                320.461,312.756 334.968,298.25 334.968,262.41 		"/>
        </g>
        <polygon style="fill:#63D3FD;" points="102.861,154.036 154.061,154.036 154.061,102.836 102.861,102.836 	"/>
        <path style="fill:#FFE100;" d="M213.795,8.969c18.773,51.2,25.6,106.667,5.973,126.293l-11.947,11.947l41.813,42.667l11.947-11.947
            c19.627-19.627,69.973-18.773,120.32,0c0,0,11.947-72.533-42.667-126.293S213.795,8.969,213.795,8.969"/>
        <path style="fill:#FFA800;" d="M340.941,52.489c-46.08-46.08-104.96-44.373-122.027-42.667
            c26.453,1.707,64.853,11.093,96.427,42.667c43.52,43.52,44.373,98.987,42.667,119.467c7.68,1.707,16.213,4.267,24.747,7.68
            C383.608,178.783,394.701,106.249,340.941,52.489"/>
        <path style="fill:#FFE100;" d="M148.088,207.796l-11.947,11.947c-20.48,19.627-75.947,12.8-127.147-5.973
            c0,0-11.947,72.533,41.813,126.293s127.147,42.667,127.147,42.667c-18.773-51.2-19.627-101.547,0-120.32l11.947-11.947
            L148.088,207.796z"/>
        <path style="fill:#FFFFFF;" d="M76.408,340.916c-43.52-43.52-44.373-98.987-42.667-119.467c-7.68-2.56-15.36-5.12-23.04-7.68
            c0,0-11.947,72.533,42.667,126.293c45.227,45.227,103.253,44.373,121.173,42.667C147.235,381.876,107.981,373.343,76.408,340.916"
            />
        <g>
            <polygon style="fill:#FFE100;" points="298.275,262.41 262.435,298.25 226.595,262.41 262.435,225.716 		"/>
            <polygon style="fill:#FFE100;" points="370.808,334.09 334.968,370.783 298.275,334.09 334.968,298.25 		"/>
        </g>
        <g>
            <polygon style="fill:#FFA800;" points="263.288,226.57 252.195,237.663 287.181,272.65 261.581,297.396 263.288,299.103 
                299.128,263.263 		"/>
            <polygon style="fill:#FFA800;" points="335.821,299.103 324.728,310.196 359.715,344.329 334.115,369.93 335.821,371.636 
                371.661,334.943 		"/>
        </g>
        <path style="fill:#FFE100;" d="M493.688,464.65l-28.16,28.16c-1.707,1.707-5.12,1.707-7.68,0l-87.04-86.187l35.84-35.84
            l87.04,87.04C496.248,459.53,496.248,462.943,493.688,464.65"/>
        <path style="fill:#FFA800;" d="M493.688,457.823l-86.187-87.04l-10.24,10.24l76.8,76.8c1.707,1.707,1.707,5.12,0,7.68
            l-22.187,22.187l6.827,6.827c1.707,1.707,5.12,1.707,7.68,0l29.013-28.16C496.248,462.943,496.248,459.53,493.688,457.823"/>
        <polygon style="fill:#FFE100;" points="274.381,213.77 213.795,274.356 123.341,183.903 183.928,123.316 	"/>
        <path d="M129.315,342.623c-0.853,0-1.707,0-2.56,0c-14.507-4.267-35.84-10.24-52.053-26.453
            c-16.213-16.213-22.187-37.547-26.453-52.053c-0.853-4.267,1.707-9.387,5.973-10.24c4.267-0.853,9.387,1.707,10.24,5.973
            c3.413,12.8,8.533,31.573,22.187,44.373c13.653,13.653,31.573,17.92,44.373,22.187c4.267,0.853,6.827,5.973,5.973,10.24
            C136.995,340.916,133.581,342.623,129.315,342.623z"/>
        <path d="M262.435,306.783L262.435,306.783c-2.56,0-4.267-0.853-5.973-2.56l-35.84-35.84c-3.413-3.413-3.413-8.533,0-11.947
            l35.84-35.84c3.413-3.413,8.533-3.413,11.947,0l35.84,35.84c3.413,3.413,3.413,8.533,0,11.947l-35.84,35.84
            C266.701,305.93,264.995,306.783,262.435,306.783z M238.541,262.41l23.893,23.893l23.893-23.893l-23.893-23.893L238.541,262.41z"/>
        <path d="M154.061,162.57h-51.2c-5.12,0-8.533-3.413-8.533-8.533v-51.2c0-5.12,3.413-8.533,8.533-8.533h51.2
            c5.12,0,8.533,3.413,8.533,8.533v51.2C162.595,159.156,159.181,162.57,154.061,162.57z M111.395,145.503h34.133V111.37h-34.133
            V145.503z"/>
        <path d="M334.968,379.316L334.968,379.316c-2.56,0-4.267-0.853-5.973-2.56l-35.84-35.84c-3.413-3.413-3.413-8.533,0-11.947
            l35.84-35.84c3.413-3.413,8.533-3.413,11.947,0l35.84,35.84c3.413,3.413,3.413,8.533,0,11.947l-35.84,35.84
            C339.235,378.463,336.675,379.316,334.968,379.316z M311.075,334.09l23.893,23.893l23.893-23.893l-23.893-23.893L311.075,334.09z"
            />
        <path d="M298.275,342.623h-35.84c-5.12,0-8.533-3.413-8.533-8.533v-35.84c0-2.56,0.853-4.267,2.56-5.973l35.84-35.84
            c1.707-1.707,3.413-2.56,5.973-2.56h35.84c5.12,0,8.533,3.413,8.533,8.533v35.84c0,2.56-0.853,4.267-2.56,5.973l-35.84,35.84
            C303.395,341.77,300.835,342.623,298.275,342.623z M270.968,325.556h23.893l31.573-31.573V270.09h-23.893l-31.573,31.573V325.556z"
            />
        <path d="M370.808,415.156h-35.84c-5.12,0-8.533-3.413-8.533-8.533v-35.84c0-2.56,0.853-4.267,2.56-5.973l35.84-35.84
            c1.707-1.707,3.413-2.56,5.973-2.56h35.84c5.12,0,8.533,3.413,8.533,8.533v35.84c0,2.56-0.853,4.267-2.56,5.973l-35.84,35.84
            C375.075,414.303,373.368,415.156,370.808,415.156z M343.501,398.09h23.893l31.573-31.573v-23.893h-23.893l-31.573,31.573V398.09z"
            />
        <path d="M461.261,503.903c-3.413,0-6.827-1.707-10.24-4.267l-86.187-87.04c-3.413-3.413-3.413-8.533,0-11.947l35.84-35.84
            c3.413-3.413,8.533-3.413,11.947,0l87.04,87.04c5.12,5.12,5.12,14.507,0,19.627l-28.16,28.16
            C468.941,502.196,465.528,503.903,461.261,503.903z M382.755,406.623l78.507,78.507l23.893-23.893l-78.507-78.507L382.755,406.623z
            "/>
        <path d="M213.795,282.889c-2.56,0-4.267-0.853-5.973-2.56l-90.453-90.453c-1.707-1.707-2.56-3.413-2.56-5.973
            c0-2.56,0.853-4.267,2.56-5.973l60.587-60.587c3.413-3.413,8.533-3.413,11.947,0l90.453,90.453c3.413,3.413,3.413,8.533,0,11.947
            l-60.587,60.587C218.915,282.036,216.355,282.889,213.795,282.889z M135.288,183.903l78.507,78.507l48.64-48.64l-78.507-78.507
            L135.288,183.903z"/>
        <path d="M334.968,137.823c-3.413,0-6.827-2.56-8.533-5.973c-3.413-12.8-8.533-31.573-22.187-44.373
            c-12.8-13.653-30.72-18.773-44.373-22.187c-4.267-0.853-6.827-5.973-5.973-10.24c0.853-4.267,5.973-6.827,10.24-5.973
            c14.507,4.267,35.84,10.24,52.053,26.453s22.187,37.547,26.453,52.053c0.853,4.267-1.707,9.387-5.973,10.24
            C336.675,137.823,335.821,137.823,334.968,137.823z"/>
        <path d="M250.488,198.41L250.488,198.41c-2.56,0-4.267-0.853-5.973-2.56l-41.813-42.667c-3.413-3.413-3.413-8.533,0-11.947
            l11.947-11.947c15.36-15.36,11.947-63.147-7.68-117.76c-1.707-2.56-1.707-5.12,0-6.827c0.853-2.56,3.413-4.267,5.973-4.267
            c3.413-0.853,77.653-11.947,133.973,44.373s45.227,130.56,44.373,133.973c0,2.56-1.707,5.12-4.267,5.973
            c-2.56,1.707-5.12,1.707-6.827,0.853c-48.64-17.92-95.573-18.773-111.787-1.707l-11.947,11.947
            C254.755,197.556,252.195,198.41,250.488,198.41z M219.768,147.21l29.867,29.867l5.973-5.973
            c20.48-20.48,67.413-22.187,119.467-5.973c0.853-21.333-2.56-70.827-40.96-109.227s-87.893-41.813-109.227-40.96
            c15.36,47.787,23.04,102.4,0,125.44L219.768,147.21z"/>
        <path d="M160.035,392.116c-26.453,0-75.093-5.973-115.2-46.08c-56.32-55.467-44.373-130.56-44.373-133.973
            c0-2.56,1.707-5.12,4.267-5.973c2.56-0.853,5.12-0.853,6.827,0c54.613,19.627,102.4,23.04,117.76,7.68l11.947-11.947
            c3.413-3.413,8.533-3.413,11.947,0l42.667,41.813c1.707,1.707,2.56,3.413,2.56,5.973s-0.853,4.267-2.56,5.973l-11.947,11.947
            c-16.213,16.213-15.36,63.147,1.707,111.787c0.853,2.56,0.853,5.12-0.853,6.827c-1.707,2.56-3.413,3.413-5.973,4.267
            C177.955,391.263,171.128,392.116,160.035,392.116z M16.675,225.716c-0.853,21.333,2.56,70.827,40.96,109.227
            s87.893,41.813,109.227,40.96c-16.213-52.053-14.507-98.987,5.973-119.467l5.973-5.973l-29.867-29.867l-5.973,5.973
            C119.075,248.756,64.461,241.076,16.675,225.716z"/>
    </g>
</svg>