<svg xmlns="http://www.w3.org/2000/svg" xmlns:xlink="http://www.w3.org/1999/xlink" version="1.1" width="40" height="40" viewBox="0 0 1080 1080" xml:space="preserve">
    <defs>
    </defs>
    <rect x="0" y="0" width="100%" height="100%" fill="transparent"></rect>
    <g transform="matrix(1 0 0 1 540 540)" id="5de445b4-863e-4ce0-b6ce-8e7e23e23b73">
    <rect style="stroke: none; stroke-width: 1; stroke-dasharray: none; stroke-linecap: butt; stroke-dashoffset: 0; stroke-linejoin: miter; stroke-miterlimit: 4; fill: rgb(255,255,255); fill-rule: nonzero; opacity: 1; visibility: hidden;" vector-effect="non-scaling-stroke" x="-540" y="-540" rx="0" ry="0" width="1080" height="1080"></rect>
    </g>
    <g transform="matrix(1 0 0 1 540 540)" id="7fffe8ed-36e3-47af-92a3-649602c22c9c">
    </g>
    <g transform="matrix(-1.32 0 0 1.32 540.15 537.71)">
    <g style="" vector-effect="non-scaling-stroke">
            <g transform="matrix(1.58 0 0 1.58 74.7 73.99)">
    <polygon style="stroke: none; stroke-width: 1; stroke-dasharray: none; stroke-linecap: butt; stroke-dashoffset: 0; stroke-linejoin: miter; stroke-miterlimit: 4; fill: rgb(99,211,253); fill-rule: nonzero; opacity: 1;" vector-effect="non-scaling-stroke" points="36.27,0 -0.43,35.84 -36.27,35.84 -36.27,0 -0.43,-35.84 36.27,-35.84 "></polygon>
    </g>
            <g transform="matrix(1.58 0 0 1.58 189.63 188.24)">
    <polygon style="stroke: none; stroke-width: 1; stroke-dasharray: none; stroke-linecap: butt; stroke-dashoffset: 0; stroke-linejoin: miter; stroke-miterlimit: 4; fill: rgb(99,211,253); fill-rule: nonzero; opacity: 1;" vector-effect="non-scaling-stroke" points="36.27,0.43 -0.43,36.27 -36.27,36.27 -36.27,0.43 -0.43,-36.27 36.27,-36.27 "></polygon>
    </g>
            <g transform="matrix(1.58 0 0 1.58 189.63 170.71)">
    <polygon style="stroke: none; stroke-width: 1; stroke-dasharray: none; stroke-linecap: butt; stroke-dashoffset: 0; stroke-linejoin: miter; stroke-miterlimit: 4; fill: rgb(61,185,249); fill-rule: nonzero; opacity: 1;" vector-effect="non-scaling-stroke" points="-0.43,-25.17 -36.27,10.67 -36.27,12.37 -14.08,-9.81 21.76,-9.81 21.76,25.17 36.27,10.67 36.27,-25.17 "></polygon>
    </g>
            <g transform="matrix(1.58 0 0 1.58 74.7 57.13)">
    <polygon style="stroke: none; stroke-width: 1; stroke-dasharray: none; stroke-linecap: butt; stroke-dashoffset: 0; stroke-linejoin: miter; stroke-miterlimit: 4; fill: rgb(61,185,249); fill-rule: nonzero; opacity: 1;" vector-effect="non-scaling-stroke" points="-0.43,-25.17 -36.27,10.67 -36.27,12.37 -14.93,-9.81 21.76,-9.81 21.76,25.17 36.27,10.67 36.27,-25.17 "></polygon>
    </g>
            <g transform="matrix(1.58 0 0 1.58 -194.99 -195.02)">
    <polygon style="stroke: none; stroke-width: 1; stroke-dasharray: none; stroke-linecap: butt; stroke-dashoffset: 0; stroke-linejoin: miter; stroke-miterlimit: 4; fill: rgb(99,211,253); fill-rule: nonzero; opacity: 1;" vector-effect="non-scaling-stroke" points="-25.6,25.6 25.6,25.6 25.6,-25.6 -25.6,-25.6 "></polygon>
    </g>
            <g transform="matrix(1.58 0 0 1.58 69.27 -242.04)">
    <path style="stroke: none; stroke-width: 1; stroke-dasharray: none; stroke-linecap: butt; stroke-dashoffset: 0; stroke-linejoin: miter; stroke-miterlimit: 4; fill: rgb(255,225,0); fill-rule: nonzero; opacity: 1;" vector-effect="non-scaling-stroke" transform=" translate(-295.41, -98.95)" d="M 213.795 8.969 C 232.56799999999998 60.169000000000004 239.39499999999998 115.636 219.768 135.262 L 207.821 147.209 L 249.63400000000001 189.876 L 261.581 177.929 C 281.208 158.302 331.55400000000003 159.156 381.901 177.929 C 381.901 177.929 393.848 105.396 339.23400000000004 51.635999999999996 C 284.62000000000006 -2.1240000000000094 213.795 8.969 213.795 8.969" stroke-linecap="round"></path>
    </g>
            <g transform="matrix(1.58 0 0 1.58 79.08 -249.21)">
    <path style="stroke: none; stroke-width: 1; stroke-dasharray: none; stroke-linecap: butt; stroke-dashoffset: 0; stroke-linejoin: miter; stroke-miterlimit: 4; fill: rgb(255,168,0); fill-rule: nonzero; opacity: 1;" vector-effect="non-scaling-stroke" transform=" translate(-301.59, -94.41)" d="M 340.941 52.489 C 294.861 6.408999999999999 235.981 8.116 218.914 9.821999999999996 C 245.367 11.528999999999996 283.767 20.914999999999996 315.341 52.489 C 358.861 96.009 359.714 151.476 358.00800000000004 171.956 C 365.68800000000005 173.66299999999998 374.22100000000006 176.22299999999998 382.75500000000005 179.636 C 383.608 178.783 394.701 106.249 340.941 52.489" stroke-linecap="round"></path>
    </g>
            <g transform="matrix(1.58 0 0 1.58 -242.15 69.78)">
    <path style="stroke: none; stroke-width: 1; stroke-dasharray: none; stroke-linecap: butt; stroke-dashoffset: 0; stroke-linejoin: miter; stroke-miterlimit: 4; fill: rgb(255,225,0); fill-rule: nonzero; opacity: 1;" vector-effect="non-scaling-stroke" transform=" translate(-98.88, -295.74)" d="M 148.088 207.796 L 136.141 219.743 C 115.66099999999999 239.37 60.19399999999999 232.543 8.993999999999986 213.76999999999998 C 8.993999999999986 213.76999999999998 -2.9530000000000136 286.303 50.80699999999999 340.063 C 104.567 393.823 177.954 382.73 177.954 382.73 C 159.181 331.53000000000003 158.327 281.183 177.954 262.41 L 189.901 250.46300000000002 L 148.088 207.796 z" stroke-linecap="round"></path>
    </g>
            <g transform="matrix(1.58 0 0 1.58 -252.9 74.22)">
    <path style="stroke: none; stroke-width: 1; stroke-dasharray: none; stroke-linecap: butt; stroke-dashoffset: 0; stroke-linejoin: miter; stroke-miterlimit: 4; fill: rgb(255,255,255); fill-rule: nonzero; opacity: 1;" vector-effect="non-scaling-stroke" transform=" translate(-92.07, -298.54)" d="M 76.408 340.916 C 32.888 297.396 32.035000000000004 241.929 33.741 221.449 C 26.061 218.889 18.381 216.329 10.701 213.769 C 10.701 213.769 -1.2459999999999987 286.302 53.368 340.062 C 98.595 385.289 156.621 384.435 174.541 382.72900000000004 C 147.235 381.876 107.981 373.343 76.408 340.916" stroke-linecap="round"></path>
    </g>
            <g transform="matrix(1.58 0 0 1.58 17.25 16.52)">
    <polygon style="stroke: none; stroke-width: 1; stroke-dasharray: none; stroke-linecap: butt; stroke-dashoffset: 0; stroke-linejoin: miter; stroke-miterlimit: 4; fill: rgb(255,225,0); fill-rule: nonzero; opacity: 1;" vector-effect="non-scaling-stroke" points="35.84,0.43 0,36.27 -35.84,0.43 0,-36.27 "></polygon>
    </g>
            <g transform="matrix(1.58 0 0 1.58 131.49 131.45)">
    <polygon style="stroke: none; stroke-width: 1; stroke-dasharray: none; stroke-linecap: butt; stroke-dashoffset: 0; stroke-linejoin: miter; stroke-miterlimit: 4; fill: rgb(255,225,0); fill-rule: nonzero; opacity: 1;" vector-effect="non-scaling-stroke" points="36.27,-0.43 0.43,36.27 -36.27,-0.43 0.43,-36.27 "></polygon>
    </g>
            <g transform="matrix(1.58 0 0 1.58 38.26 17.88)">
    <polygon style="stroke: none; stroke-width: 1; stroke-dasharray: none; stroke-linecap: butt; stroke-dashoffset: 0; stroke-linejoin: miter; stroke-miterlimit: 4; fill: rgb(255,168,0); fill-rule: nonzero; opacity: 1;" vector-effect="non-scaling-stroke" points="-12.37,-36.27 -23.47,-25.17 11.52,9.81 -14.08,34.56 -12.37,36.27 23.47,0.43 "></polygon>
    </g>
            <g transform="matrix(1.58 0 0 1.58 153.18 132.8)">
    <polygon style="stroke: none; stroke-width: 1; stroke-dasharray: none; stroke-linecap: butt; stroke-dashoffset: 0; stroke-linejoin: miter; stroke-miterlimit: 4; fill: rgb(255,168,0); fill-rule: nonzero; opacity: 1;" vector-effect="non-scaling-stroke" points="-12.37,-36.27 -23.47,-25.17 11.52,8.96 -14.08,34.56 -12.37,36.27 23.47,-0.43 "></polygon>
    </g>
            <g transform="matrix(1.58 0 0 1.58 287.71 286.49)">
    <path style="stroke: none; stroke-width: 1; stroke-dasharray: none; stroke-linecap: butt; stroke-dashoffset: 0; stroke-linejoin: miter; stroke-miterlimit: 4; fill: rgb(255,225,0); fill-rule: nonzero; opacity: 1;" vector-effect="non-scaling-stroke" transform=" translate(-433.21, -432.44)" d="M 493.688 464.65 L 465.52799999999996 492.81 C 463.82099999999997 494.517 460.40799999999996 494.517 457.84799999999996 492.81 L 370.80799999999994 406.623 L 406.6479999999999 370.783 L 493.68799999999993 457.82300000000004 C 496.248 459.53 496.248 462.943 493.688 464.65" stroke-linecap="round"></path>
    </g>
            <g transform="matrix(1.58 0 0 1.58 308.96 287.84)">
    <path style="stroke: none; stroke-width: 1; stroke-dasharray: none; stroke-linecap: butt; stroke-dashoffset: 0; stroke-linejoin: miter; stroke-miterlimit: 4; fill: rgb(255,168,0); fill-rule: nonzero; opacity: 1;" vector-effect="non-scaling-stroke" transform=" translate(-446.58, -433.29)" d="M 493.688 457.823 L 407.501 370.78299999999996 L 397.26099999999997 381.02299999999997 L 474.061 457.823 C 475.768 459.53 475.768 462.943 474.061 465.503 L 451.87399999999997 487.69 L 458.70099999999996 494.517 C 460.40799999999996 496.224 463.82099999999997 496.224 466.381 494.517 L 495.39399999999995 466.35699999999997 C 496.248 462.943 496.248 459.53 493.688 457.823" stroke-linecap="round"></path>
    </g>
            <g transform="matrix(1.58 0 0 1.58 -83.67 -83.71)">
    <polygon style="stroke: none; stroke-width: 1; stroke-dasharray: none; stroke-linecap: butt; stroke-dashoffset: 0; stroke-linejoin: miter; stroke-miterlimit: 4; fill: rgb(255,225,0); fill-rule: nonzero; opacity: 1;" vector-effect="non-scaling-stroke" points="75.52,14.93 14.93,75.52 -75.52,-14.93 -14.93,-75.52 "></polygon>
    </g>
            <g transform="matrix(1.58 0 0 1.58 -251.86 73.83)">
    <path style="stroke: none; stroke-width: 1; stroke-dasharray: none; stroke-linecap: butt; stroke-dashoffset: 0; stroke-linejoin: miter; stroke-miterlimit: 4; fill: rgb(0,0,0); fill-rule: nonzero; opacity: 1;" vector-effect="non-scaling-stroke" transform=" translate(-92.62, -298.17)" d="M 129.315 342.623 C 128.462 342.623 127.608 342.623 126.755 342.623 C 112.24799999999999 338.356 90.91499999999999 332.383 74.702 316.17 C 58.489 299.957 52.515 278.62300000000005 48.248999999999995 264.117 C 47.395999999999994 259.85 49.955999999999996 254.73000000000002 54.221999999999994 253.877 C 58.489 253.024 63.608999999999995 255.584 64.46199999999999 259.85 C 67.87499999999999 272.65000000000003 72.99499999999999 291.423 86.64899999999999 304.223 C 100.30199999999999 317.87600000000003 118.22199999999998 322.14300000000003 131.022 326.41 C 135.289 327.26300000000003 137.849 332.38300000000004 136.995 336.65000000000003 C 136.995 340.916 133.581 342.623 129.315 342.623 z" stroke-linecap="round"></path>
    </g>
            <g transform="matrix(1.58 0 0 1.58 17.21 17.17)">
    <path style="stroke: none; stroke-width: 1; stroke-dasharray: none; stroke-linecap: butt; stroke-dashoffset: 0; stroke-linejoin: miter; stroke-miterlimit: 4; fill: rgb(0,0,0); fill-rule: nonzero; opacity: 1;" vector-effect="non-scaling-stroke" transform=" translate(-262.44, -262.41)" d="M 262.435 306.783 L 262.435 306.783 C 259.875 306.783 258.168 305.93 256.462 304.223 L 220.62199999999999 268.38300000000004 C 217.20899999999997 264.97 217.20899999999997 259.85 220.62199999999999 256.43600000000004 L 256.462 220.59600000000003 C 259.875 217.18300000000002 264.995 217.18300000000002 268.409 220.59600000000003 L 304.249 256.43600000000004 C 307.66200000000003 259.84900000000005 307.66200000000003 264.96900000000005 304.249 268.38300000000004 L 268.409 304.22300000000007 C 266.701 305.93 264.995 306.783 262.435 306.783 z M 238.541 262.41 L 262.43399999999997 286.303 L 286.327 262.40999999999997 L 262.43399999999997 238.51699999999997 L 238.541 262.41 z" stroke-linecap="round"></path>
    </g>
            <g transform="matrix(1.58 0 0 1.58 -195.03 -195.06)">
    <path style="stroke: none; stroke-width: 1; stroke-dasharray: none; stroke-linecap: butt; stroke-dashoffset: 0; stroke-linejoin: miter; stroke-miterlimit: 4; fill: rgb(0,0,0); fill-rule: nonzero; opacity: 1;" vector-effect="non-scaling-stroke" transform=" translate(-128.46, -128.44)" d="M 154.061 162.57 L 102.861 162.57 C 97.741 162.57 94.328 159.15699999999998 94.328 154.037 L 94.328 102.837 C 94.328 97.717 97.741 94.304 102.861 94.304 L 154.061 94.304 C 159.181 94.304 162.594 97.717 162.594 102.837 L 162.594 154.037 C 162.595 159.156 159.181 162.57 154.061 162.57 z M 111.395 145.503 L 145.528 145.503 L 145.528 111.37 L 111.39499999999998 111.37 L 111.39499999999998 145.503 z" stroke-linecap="round"></path>
    </g>
            <g transform="matrix(1.58 0 0 1.58 132.13 132.09)">
    <path style="stroke: none; stroke-width: 1; stroke-dasharray: none; stroke-linecap: butt; stroke-dashoffset: 0; stroke-linejoin: miter; stroke-miterlimit: 4; fill: rgb(0,0,0); fill-rule: nonzero; opacity: 1;" vector-effect="non-scaling-stroke" transform=" translate(-334.97, -334.94)" d="M 334.968 379.316 L 334.968 379.316 C 332.408 379.316 330.701 378.46299999999997 328.995 376.756 L 293.155 340.91599999999994 C 289.74199999999996 337.50299999999993 289.74199999999996 332.3829999999999 293.155 328.96899999999994 L 328.995 293.1289999999999 C 332.408 289.7159999999999 337.528 289.7159999999999 340.942 293.1289999999999 L 376.78200000000004 328.96899999999994 C 380.19500000000005 332.38199999999995 380.19500000000005 337.50199999999995 376.78200000000004 340.91599999999994 L 340.942 376.756 C 339.235 378.463 336.675 379.316 334.968 379.316 z M 311.075 334.09 L 334.96799999999996 357.98299999999995 L 358.861 334.0899999999999 L 334.96799999999996 310.1969999999999 L 311.075 334.09 z" stroke-linecap="round"></path>
    </g>
            <g transform="matrix(1.58 0 0 1.58 73.99 73.95)">
    <path style="stroke: none; stroke-width: 1; stroke-dasharray: none; stroke-linecap: butt; stroke-dashoffset: 0; stroke-linejoin: miter; stroke-miterlimit: 4; fill: rgb(0,0,0); fill-rule: nonzero; opacity: 1;" vector-effect="non-scaling-stroke" transform=" translate(-298.27, -298.25)" d="M 298.275 342.623 L 262.43499999999995 342.623 C 257.31499999999994 342.623 253.90199999999996 339.21 253.90199999999996 334.09 L 253.90199999999996 298.25 C 253.90199999999996 295.69 254.75499999999997 293.983 256.46199999999993 292.277 L 292.3019999999999 256.437 C 294.0089999999999 254.73000000000002 295.7149999999999 253.877 298.2749999999999 253.877 L 334.1149999999999 253.877 C 339.2349999999999 253.877 342.6479999999999 257.29 342.6479999999999 262.41 L 342.6479999999999 298.25 C 342.6479999999999 300.81 341.7949999999999 302.517 340.0879999999999 304.223 L 304.24799999999993 340.063 C 303.395 341.77 300.835 342.623 298.275 342.623 z M 270.968 325.556 L 294.861 325.556 L 326.43399999999997 293.983 L 326.43399999999997 270.09 L 302.54099999999994 270.09 L 270.96799999999996 301.66299999999995 L 270.96799999999996 325.556 z" stroke-linecap="round"></path>
    </g>
            <g transform="matrix(1.58 0 0 1.58 188.92 188.88)">
    <path style="stroke: none; stroke-width: 1; stroke-dasharray: none; stroke-linecap: butt; stroke-dashoffset: 0; stroke-linejoin: miter; stroke-miterlimit: 4; fill: rgb(0,0,0); fill-rule: nonzero; opacity: 1;" vector-effect="non-scaling-stroke" transform=" translate(-370.81, -370.78)" d="M 370.808 415.156 L 334.96799999999996 415.156 C 329.84799999999996 415.156 326.43499999999995 411.743 326.43499999999995 406.623 L 326.43499999999995 370.783 C 326.43499999999995 368.223 327.28799999999995 366.516 328.99499999999995 364.81 L 364.8349999999999 328.97 C 366.5419999999999 327.26300000000003 368.24799999999993 326.41 370.80799999999994 326.41 L 406.6479999999999 326.41 C 411.7679999999999 326.41 415.1809999999999 329.82300000000004 415.1809999999999 334.94300000000004 L 415.1809999999999 370.783 C 415.1809999999999 373.343 414.3279999999999 375.05 412.6209999999999 376.75600000000003 L 376.78099999999995 412.596 C 375.075 414.303 373.368 415.156 370.808 415.156 z M 343.501 398.09 L 367.394 398.09 L 398.967 366.517 L 398.967 342.624 L 375.07399999999996 342.624 L 343.501 374.197 L 343.501 398.09 z" stroke-linecap="round"></path>
    </g>
            <g transform="matrix(1.58 0 0 1.58 287.16 287.47)">
    <path style="stroke: none; stroke-width: 1; stroke-dasharray: none; stroke-linecap: butt; stroke-dashoffset: 0; stroke-linejoin: miter; stroke-miterlimit: 4; fill: rgb(0,0,0); fill-rule: nonzero; opacity: 1;" vector-effect="non-scaling-stroke" transform=" translate(-432.89, -433.08)" d="M 461.261 503.903 C 457.848 503.903 454.434 502.196 451.021 499.636 L 364.834 412.596 C 361.421 409.183 361.421 404.063 364.834 400.649 L 400.674 364.80899999999997 C 404.087 361.39599999999996 409.207 361.39599999999996 412.621 364.80899999999997 L 499.661 451.849 C 504.781 456.969 504.781 466.356 499.661 471.476 L 471.501 499.636 C 468.941 502.196 465.528 503.903 461.261 503.903 z M 382.755 406.623 L 461.262 485.13 L 485.155 461.23699999999997 L 406.64799999999997 382.72999999999996 L 382.755 406.623 z" stroke-linecap="round"></path>
    </g>
            <g transform="matrix(1.58 0 0 1.58 -83.7 -83.74)">
    <path style="stroke: none; stroke-width: 1; stroke-dasharray: none; stroke-linecap: butt; stroke-dashoffset: 0; stroke-linejoin: miter; stroke-miterlimit: 4; fill: rgb(0,0,0); fill-rule: nonzero; opacity: 1;" vector-effect="non-scaling-stroke" transform=" translate(-198.86, -198.84)" d="M 213.795 282.889 C 211.23499999999999 282.889 209.528 282.036 207.82199999999997 280.329 L 117.36899999999997 189.876 C 115.66199999999998 188.169 114.80899999999997 186.463 114.80899999999997 183.903 C 114.80899999999997 181.343 115.66199999999996 179.636 117.36899999999997 177.92999999999998 L 177.95599999999996 117.34299999999998 C 181.36899999999997 113.92999999999998 186.48899999999995 113.92999999999998 189.90299999999996 117.34299999999998 L 280.356 207.796 C 283.769 211.209 283.769 216.32899999999998 280.356 219.743 L 219.769 280.33 C 218.915 282.036 216.355 282.889 213.795 282.889 z M 135.288 183.903 L 213.79500000000002 262.40999999999997 L 262.435 213.76999999999998 L 183.928 135.26299999999998 L 135.288 183.903 z" stroke-linecap="round"></path>
    </g>
            <g transform="matrix(1.58 0 0 1.58 73.99 -250.67)">
    <path style="stroke: none; stroke-width: 1; stroke-dasharray: none; stroke-linecap: butt; stroke-dashoffset: 0; stroke-linejoin: miter; stroke-miterlimit: 4; fill: rgb(0,0,0); fill-rule: nonzero; opacity: 1;" vector-effect="non-scaling-stroke" transform=" translate(-298.27, -93.37)" d="M 334.968 137.823 C 331.555 137.823 328.141 135.263 326.435 131.85 C 323.022 119.05 317.902 100.27699999999999 304.248 87.477 C 291.448 73.824 273.528 68.70400000000001 259.875 65.29 C 255.608 64.43700000000001 253.048 59.31700000000001 253.902 55.050000000000004 C 254.755 50.783 259.875 48.223000000000006 264.142 49.077000000000005 C 278.649 53.34400000000001 299.98199999999997 59.31700000000001 316.195 75.53 C 332.408 91.743 338.382 113.077 342.64799999999997 127.583 C 343.501 131.85 340.941 136.97 336.67499999999995 137.823 C 336.675 137.823 335.821 137.823 334.968 137.823 z" stroke-linecap="round"></path>
    </g>
            <g transform="matrix(1.58 0 0 1.58 70.84 -242.47)">
    <path style="stroke: none; stroke-width: 1; stroke-dasharray: none; stroke-linecap: butt; stroke-dashoffset: 0; stroke-linejoin: miter; stroke-miterlimit: 4; fill: rgb(0,0,0); fill-rule: nonzero; opacity: 1;" vector-effect="non-scaling-stroke" transform=" translate(-296.43, -98.7)" d="M 250.488 198.41 L 250.488 198.41 C 247.928 198.41 246.221 197.557 244.515 195.85 L 202.702 153.183 C 199.289 149.76999999999998 199.289 144.65 202.702 141.236 L 214.649 129.289 C 230.00900000000001 113.92899999999999 226.596 66.142 206.969 11.528999999999982 C 205.262 8.968999999999982 205.262 6.408999999999982 206.969 4.701999999999982 C 207.822 2.141999999999982 210.382 0.43499999999998185 212.942 0.43499999999998185 C 216.35500000000002 -0.41800000000001813 290.595 -11.512000000000018 346.915 44.80799999999998 C 403.235 101.12799999999997 392.142 175.368 391.288 178.781 C 391.288 181.341 389.581 183.901 387.021 184.75400000000002 C 384.461 186.461 381.901 186.461 380.194 185.60700000000003 C 331.55400000000003 167.687 284.62100000000004 166.83400000000003 268.40700000000004 183.90000000000003 L 256.46000000000004 195.84700000000004 C 254.755 197.556 252.195 198.41 250.488 198.41 z M 219.768 147.21 L 249.635 177.077 L 255.608 171.10399999999998 C 276.088 150.624 323.021 148.91699999999997 375.075 165.13099999999997 C 375.928 143.79799999999997 372.515 94.30399999999997 334.115 55.90399999999997 C 295.71500000000003 17.503999999999962 246.222 14.090999999999966 224.888 14.943999999999967 C 240.248 62.730999999999966 247.928 117.34399999999997 224.888 140.38399999999996 L 219.768 147.21 z" stroke-linecap="round"></path>
    </g>
            <g transform="matrix(1.58 0 0 1.58 -242.12 69.66)">
    <path style="stroke: none; stroke-width: 1; stroke-dasharray: none; stroke-linecap: butt; stroke-dashoffset: 0; stroke-linejoin: miter; stroke-miterlimit: 4; fill: rgb(0,0,0); fill-rule: nonzero; opacity: 1;" vector-effect="non-scaling-stroke" transform=" translate(-98.92, -295.69)" d="M 160.035 392.116 C 133.582 392.116 84.942 386.143 44.834999999999994 346.036 C -11.485000000000007 290.569 0.4619999999999962 215.476 0.4619999999999962 212.063 C 0.4619999999999962 209.503 2.168999999999996 206.94299999999998 4.7289999999999965 206.08999999999997 C 7.288999999999996 205.23699999999997 9.848999999999997 205.23699999999997 11.555999999999997 206.08999999999997 C 66.169 225.71699999999998 113.956 229.12999999999997 129.316 213.76999999999998 L 141.263 201.82299999999998 C 144.67600000000002 198.40999999999997 149.796 198.40999999999997 153.21 201.82299999999998 L 195.877 243.63599999999997 C 197.584 245.34299999999996 198.437 247.04899999999998 198.437 249.60899999999998 C 198.437 252.16899999999998 197.584 253.87599999999998 195.877 255.582 L 183.93 267.529 C 167.717 283.742 168.57 330.676 185.637 379.31600000000003 C 186.49 381.87600000000003 186.49 384.43600000000004 184.784 386.14300000000003 C 183.077 388.70300000000003 181.37099999999998 389.55600000000004 178.81099999999998 390.41 C 177.955 391.263 171.128 392.116 160.035 392.116 z M 16.675 225.716 C 15.822000000000001 247.049 19.235 296.543 57.635000000000005 334.943 C 96.03500000000001 373.34299999999996 145.52800000000002 376.756 166.86200000000002 375.90299999999996 C 150.64900000000003 323.84999999999997 152.35500000000002 276.91599999999994 172.83500000000004 256.436 L 178.80800000000005 250.46299999999997 L 148.94100000000006 220.59599999999998 L 142.96800000000005 226.569 C 119.075 248.756 64.461 241.076 16.675 225.716 z" stroke-linecap="round"></path>
    </g>
    </g>
    </g>
</svg>